<svg width="420" height="56" xmlns="http://www.w3.org/2000/svg" xmlns:undefined="http://www.w3.org/2000/svg" version="1.1">

 <g>
  <title>Layer 1</title>
  <g id="svg_1" text-anchor="none" font-size="none" font-weight="none" font-family="none" stroke-dashoffset="0" stroke-miterlimit="10" fill-rule="nonzero" fill="#78d64b">
   <g id="svg_2" data-paper-data="{"isGlobalGroup":true}">
    <g id="svg_3" data-paper-data="{"isPrimaryText":true}">
     <path id="svg_4" data-paper-data="{"glyphName":"E","glyphIndex":0,"firstGlyphOfWord":true,"word":1}" d="m29.71236,45.16714c1.74138,0 3.26509,-1.41487 3.26509,-3.26509c0,-1.85022 -1.52371,-3.26509 -3.26509,-3.26509l-26.44727,0c-1.85022,0 -3.26509,1.41487 -3.26509,3.26509c0,1.85022 1.41487,3.26509 3.26509,3.26509l26.44727,0zm0.21767,-16.86966c1.74138,0 3.26509,-1.41487 3.26509,-3.26509c0,-1.85022 -1.52371,-3.26509 -3.26509,-3.26509l-26.66494,0c-1.85022,0 -3.26509,1.41487 -3.26509,3.26509c0,1.85022 1.41487,3.26509 3.26509,3.26509l26.66494,0zm-0.21767,-16.86965c1.74138,0 3.26509,-1.41487 3.26509,-3.26509c0,-1.85022 -1.52371,-3.26509 -3.26509,-3.26509l-26.44727,0c-1.85022,0 -3.26509,1.41487 -3.26509,3.26509c0,1.85022 1.41487,3.26509 3.26509,3.26509l26.44727,0z"/>
     <path id="svg_5" data-paper-data="{"glyphName":"A","glyphIndex":1,"word":1}" d="m74.33532,45.16714c0.54418,0 0.97953,-0.10884 1.41487,-0.32651c1.63255,-0.76186 2.28557,-2.82975 1.52371,-4.4623l-16.76082,-33.63047c-0.54418,-1.1972 -1.63255,-1.85022 -2.93859,-1.85022l0,0c-1.1972,0 -2.3944,0.65302 -2.93859,1.85022l-16.76082,33.63047c-0.76186,1.63255 -0.10884,3.70044 1.52371,4.4623c1.63255,0.76186 3.5916,0.10884 4.4623,-1.52371l13.7134,-27.7533l13.82223,27.7533c0.54418,1.1972 1.74138,1.85022 2.93859,1.85022l0.00001,0z"/>
     <path id="svg_6" data-paper-data="{"glyphName":"S","glyphIndex":2,"word":1}" d="m98.60586,45.16714c9.35994,0 16.65198,-5.11531 16.65198,-11.75434c0,-6.53019 -7.29204,-11.6455 -16.65198,-11.6455c-5.76833,0 -10.01296,-2.72091 -10.01296,-5.22415c0,-2.3944 4.24462,-5.11531 10.01296,-5.11531c3.26509,0 6.20368,0.87069 8.27157,2.3944c0,0 0.10884,0 0.10884,0.10884c0.43535,0.32651 0.87069,0.65302 1.08836,1.08836c1.08836,1.41487 3.15626,1.74138 4.57113,0.65302c1.52371,-1.08836 1.85022,-3.15626 0.76186,-4.57113c-2.61208,-3.48277 -7.40088,-5.76833 -12.95154,-6.20368c-0.21767,0 -0.32651,0 -0.43535,0c-0.43535,0 -0.87069,0 -1.41487,0c-9.2511,0 -16.65198,5.11531 -16.65198,11.6455c0,6.63903 7.40088,11.75434 16.65198,11.75434c5.76833,0 10.01296,2.72091 10.01296,5.11531c0,2.50324 -4.24462,5.22415 -10.01296,5.22415c-3.26509,0 -6.20368,-0.87069 -8.16274,-2.3944c-0.10884,0 -0.10884,0 -0.10884,-0.10884c-0.43535,-0.32651 -0.87069,-0.65302 -1.08836,-1.08836c-1.08836,-1.41487 -3.15626,-1.74138 -4.67997,-0.65302c-1.41487,0.97953 -1.74138,3.04742 -0.65302,4.57113c2.50324,3.48277 7.29204,5.76833 12.95154,6.20368c0.10884,0 0.21767,0 0.43535,0c0.43535,0 0.87069,0 1.30604,0z"/>
     <path id="svg_7" data-paper-data="{"glyphName":"Y","glyphIndex":3,"lastGlyphOfWord":true,"word":1}" d="m136.15444,45.16714c1.85022,0 3.26509,-1.41487 3.37393,-3.26509l0.10884,-15.78129l12.40736,-15.99896c1.08836,-1.41487 0.76186,-3.48277 -0.65302,-4.57113c-1.41487,-1.08836 -3.48277,-0.87069 -4.57113,0.65302l-10.4483,13.49572l-10.88365,-13.60456c-1.08836,-1.41487 -3.15626,-1.63255 -4.57113,-0.54418c-1.41487,1.1972 -1.63255,3.26509 -0.54418,4.67997l12.73387,15.89013l-0.21767,15.67245c0,0.10884 0,0.10884 0,0.10884c0,1.74138 1.41487,3.26509 3.26509,3.26509l-0.00001,-0.00001z"/>
     <path id="svg_8" data-paper-data="{"glyphName":"J","glyphIndex":4,"firstGlyphOfWord":true,"word":2}" d="m196.23218,45.16714c9.14226,0 16.54315,-7.40088 16.54315,-16.43431l0,-20.5701c0,-1.85022 -1.52371,-3.26509 -3.26509,-3.26509c-1.85022,0 -3.37393,1.41487 -3.37393,3.26509l0,20.5701c0,5.44182 -4.4623,9.90412 -9.90412,9.90412c-5.44182,0 -9.90412,-4.4623 -9.90412,-9.90412l0,-3.70044c0,-1.85022 -1.41487,-3.26509 -3.26509,-3.26509c-1.85022,0 -3.26509,1.41487 -3.26509,3.26509l0,3.70044c0,9.03343 7.40088,16.43431 16.43431,16.43431l-0.00002,0z"/>
     <path id="svg_9" data-paper-data="{"glyphName":"E","glyphIndex":5,"word":2}" d="m246.84115,45.16714c1.74138,0 3.26509,-1.41487 3.26509,-3.26509c0,-1.85022 -1.52371,-3.26509 -3.26509,-3.26509l-26.44727,0c-1.85022,0 -3.26509,1.41487 -3.26509,3.26509c0,1.85022 1.41487,3.26509 3.26509,3.26509l26.44727,0zm0.21767,-16.86966c1.74138,0 3.26509,-1.41487 3.26509,-3.26509c0,-1.85022 -1.52371,-3.26509 -3.26509,-3.26509l-26.66494,0c-1.85022,0 -3.26509,1.41487 -3.26509,3.26509c0,1.85022 1.41487,3.26509 3.26509,3.26509l26.66494,0zm-0.21767,-16.86965c1.74138,0 3.26509,-1.41487 3.26509,-3.26509c0,-1.85022 -1.52371,-3.26509 -3.26509,-3.26509l-26.44727,0c-1.85022,0 -3.26509,1.41487 -3.26509,3.26509c0,1.85022 1.41487,3.26509 3.26509,3.26509l26.44727,0z"/>
     <path id="svg_10" data-paper-data="{"glyphName":"C","glyphIndex":6,"word":2}" d="m274.59445,45.0583c0.10884,0 0.10884,0 0.10884,0c5.33299,0 10.4483,-2.17673 14.25758,-5.98601c1.30604,-1.1972 1.30604,-3.37393 0,-4.57113c-1.30604,-1.30604 -3.37393,-1.30604 -4.67997,0c-5.33299,5.22415 -13.93107,5.33299 -19.15522,0c-5.22415,-5.22415 -5.11531,-13.82223 0.10884,-19.04639c5.33299,-5.33299 13.93107,-5.33299 19.15522,-0.10884c1.30604,1.30604 3.37393,1.30604 4.67997,0c1.1972,-1.30604 1.1972,-3.37393 0,-4.67997c-7.83623,-7.72739 -20.5701,-7.72739 -28.51516,0.10884c-7.83623,7.83623 -7.83623,20.5701 0,28.40632c3.70044,3.80928 8.70692,5.87717 14.03991,5.87717l-0.00001,0.00001z"/>
     <path id="svg_11" data-paper-data="{"glyphName":"T","glyphIndex":7,"word":2}" d="m310.837,45.16714c1.85022,0 3.26509,-1.41487 3.26509,-3.26509l0,-30.47422l10.01296,0c1.74138,0 3.26509,-1.41487 3.26509,-3.26509c0,-1.85022 -1.52371,-3.26509 -3.26509,-3.26509l-26.44727,0c-1.85022,0 -3.26509,1.41487 -3.26509,3.26509c0,1.85022 1.41487,3.26509 3.26509,3.26509l9.90412,0l0,30.47422c0,1.85022 1.41487,3.26509 3.26509,3.26509l0.00001,0z"/>
     <path id="svg_12" data-paper-data="{"glyphName":"I","glyphIndex":8,"word":2}" d="m334.9987,56.26846c1.85022,0 3.26509,-1.52371 3.26509,-3.37393l0,-49.62944c0,-1.85022 -1.41487,-3.26509 -3.26509,-3.26509c-1.85022,0 -3.26509,1.41487 -3.26509,3.26509l0,49.62944c0,1.85022 1.41487,3.37393 3.26509,3.37393z"/>
     <path id="svg_13" data-paper-data="{"glyphName":"O","glyphIndex":9,"word":2}" d="m362.64317,45.16714c11.10132,0 20.02591,-9.03343 20.02591,-20.13475c0,-11.10132 -8.92459,-20.13475 -20.02591,-20.13475c-10.99249,0 -20.02591,9.03343 -20.02591,20.13475c0,11.10132 9.03343,20.13475 20.02591,20.13475zm0,-33.73931c7.40088,0 13.49572,6.09484 13.49572,13.60456c0,7.50972 -6.09484,13.60456 -13.49572,13.60456c-7.40088,0 -13.38689,-6.09484 -13.38689,-13.60456c0,-7.50972 5.98601,-13.60456 13.38689,-13.60456z"/>
     <path id="svg_14" data-paper-data="{"glyphName":"N","glyphIndex":10,"lastGlyphOfWord":true,"word":2}" d="m416.73491,45.16714c0.32651,0 0.65302,0 0.97953,-0.21767c1.41487,-0.43535 2.28557,-1.63255 2.28557,-3.04742l0,-33.73931c0,-1.85022 -1.52371,-3.26509 -3.26509,-3.26509c-1.85022,0 -3.37393,1.41487 -3.37393,3.26509l0,24.1617l-20.46126,-26.22959c-0.87069,-1.08836 -2.3944,-1.52371 -3.70044,-1.08836c-1.30604,0.54418 -2.17673,1.74138 -2.17673,3.15626l0,33.73931c0,1.85022 1.41487,3.26509 3.26509,3.26509c1.85022,0 3.26509,-1.41487 3.26509,-3.26509l0,-24.1617l20.5701,26.22959c0.65302,0.76186 1.52371,1.1972 2.61208,1.1972l-0.00001,-0.00001z"/>
    </g>
   </g>
  </g>
 </g>
</svg>